<svg width="598" height="684" viewBox="0 0 598 684" fill="none" xmlns="http://www.w3.org/2000/svg">
<rect width="598" height="684" fill="#F5F5F5"/>
<g id="undraw_video_games_x1tr 1" clip-path="url(#clip0_0_1)">
<g id="handle2">
<path id="Vector" d="M571.556 102.648L588.163 103.12C588.163 103.12 573.3 -7.31974 416.356 7.71034L415.937 22.4214L571.556 102.648Z" fill="#090814"/>
<path id="Vector_2" d="M436.114 683.267L353.387 680.912L372.449 11.1442L455.176 13.4986C532.794 15.7076 594.145 80.6527 591.936 158.272L580.887 546.505C578.678 624.125 513.733 685.476 436.114 683.267Z" fill="#6C63FF"/>
<path id="Vector_3" d="M424.644 516.599C438.015 516.599 448.854 505.76 448.854 492.39C448.854 479.019 438.015 468.18 424.644 468.18C411.274 468.18 400.435 479.019 400.435 492.39C400.435 505.76 411.274 516.599 424.644 516.599Z" fill="white"/>
<path id="Vector_4" d="M428.715 70.3934L415.903 70.0288L416.268 57.2171L403.456 56.8524L403.092 69.6642L390.28 69.2995L389.915 82.1113L402.727 82.4759L402.362 95.2876L415.174 95.6522L415.539 82.8405L428.351 83.2051L428.715 70.3934Z" fill="white"/>
</g>
<path id="blackbutton2" d="M468.028 422.369C497.129 422.369 520.719 398.778 520.719 369.677C520.719 340.577 497.129 316.986 468.028 316.986C438.927 316.986 415.336 340.577 415.336 369.677C415.336 398.778 438.927 422.369 468.028 422.369Z" fill="#090814"/>
<g id="keys2">
<path id="Vector_5" d="M471.946 156.078C485.317 156.078 496.156 145.239 496.156 131.868C496.156 118.497 485.317 107.658 471.946 107.658C458.576 107.658 447.737 118.497 447.737 131.868C447.737 145.239 458.576 156.078 471.946 156.078Z" fill="white"/>
<path id="Vector_6" d="M469.11 255.724C482.481 255.724 493.32 244.885 493.32 231.515C493.32 218.144 482.481 207.305 469.11 207.305C455.74 207.305 444.901 218.144 444.901 231.515C444.901 244.885 455.74 255.724 469.11 255.724Z" fill="white"/>
<path id="Vector_7" d="M416.475 202.938C429.846 202.938 440.685 192.099 440.685 178.728C440.685 165.358 429.846 154.519 416.475 154.519C403.104 154.519 392.265 165.358 392.265 178.728C392.265 192.099 403.104 202.938 416.475 202.938Z" fill="white"/>
<path id="Vector_8" d="M521.816 205.936C535.186 205.936 546.026 195.097 546.026 181.726C546.026 168.356 535.186 157.517 521.816 157.517C508.445 157.517 497.606 168.356 497.606 181.726C497.606 195.097 508.445 205.936 521.816 205.936Z" fill="white"/>
</g>
<g id="handle1">
<path id="Vector_9" d="M22.1505 93.6264H5.38782C5.38782 93.6264 23.5474 -17.3271 181.396 2.33554V17.1839L22.1505 93.6264Z" fill="#090814"/>
<path id="Vector_10" d="M225.578 683.076H142.08C63.7372 683.076 0 619.338 0 540.995V149.14C0 70.796 63.7372 7.05881 142.08 7.05881H225.578V683.076Z" fill="#D9D9D9"/>
<path id="Vector_11" d="M206.541 64.8903H167.028V77.8216H206.541V64.8903Z" fill="white"/>
<path id="Vector_12" d="M177.086 468.633H133.982V511.737H177.086V468.633Z" fill="white"/>
</g>
<path id="blackbutton1" d="M116.74 228.686C146.101 228.686 169.902 204.885 169.902 175.524C169.902 146.164 146.101 122.363 116.74 122.363C87.3798 122.363 63.5785 146.164 63.5785 175.524C63.5785 204.885 87.3798 228.686 116.74 228.686Z" fill="#090814"/>
<g id="keys1">
<path id="Vector_13" d="M119.614 339.32C133.104 339.32 144.04 328.384 144.04 314.894C144.04 301.404 133.104 290.469 119.614 290.469C106.124 290.469 95.1882 301.404 95.1882 314.894C95.1882 328.384 106.124 339.32 119.614 339.32Z" fill="white"/>
<path id="Vector_14" d="M64.2968 388.89C77.7868 388.89 88.7225 377.954 88.7225 364.464C88.7225 350.974 77.7868 340.039 64.2968 340.039C50.8069 340.039 39.8712 350.974 39.8712 364.464C39.8712 377.954 50.8069 388.89 64.2968 388.89Z" fill="white"/>
<path id="Vector_15" d="M172.057 388.89C185.547 388.89 196.483 377.954 196.483 364.464C196.483 350.974 185.547 340.039 172.057 340.039C158.567 340.039 147.632 350.974 147.632 364.464C147.632 377.954 158.567 388.89 172.057 388.89Z" fill="white"/>
<path id="Vector_16" d="M118.895 437.741C132.385 437.741 143.321 426.806 143.321 413.316C143.321 399.826 132.385 388.89 118.895 388.89C105.406 388.89 94.4698 399.826 94.4698 413.316C94.4698 426.806 105.406 437.741 118.895 437.741Z" fill="white"/>
</g>
<path id="linebottom" d="M1.94693 682.326C1.94693 682.986 2.47693 683.516 3.13693 683.516H596.397C597.057 683.516 597.587 682.986 597.587 682.326C597.587 681.666 597.057 681.136 596.397 681.136H3.13693C2.47693 681.136 1.94693 681.666 1.94693 682.326Z" fill="#2BDDDD"/>
</g>
<defs>
<clipPath id="clip0_0_1">
<rect width="597.587" height="683.516" fill="white"/>
</clipPath>
</defs>
</svg>
